<mxfile host="65bd71144e" modified="2020-12-09T23:17:14.691Z" agent="5.0 (X11; Linux x86_64) AppleWebKit/537.36 (KHTML, like Gecko) Code/1.51.1 Chrome/83.0.4103.122 Electron/9.3.3 Safari/537.36" version="13.10.0" etag="IFNEtEDR_m6xX0dcWjOu" type="embed">
    <diagram id="sKhoy_8j1_o4b1sWBmIq" name="PÃ¡gina-1">
        <mxGraphModel dx="1434" dy="936" grid="1" gridSize="10" guides="1" tooltips="1" connect="1" arrows="1" fold="1" page="1" pageScale="1" pageWidth="827" pageHeight="1169" math="0" shadow="0">
            <root>
                <mxCell id="0"/>
                <mxCell id="1" parent="0"/>
                <mxCell id="5" value="&lt;div&gt;&lt;font color=&quot;#ffffff&quot; style=&quot;font-size: 12px&quot;&gt;&lt;br&gt;&lt;/font&gt;&lt;/div&gt;&lt;div&gt;&lt;span style=&quot;color: rgb(255 , 255 , 255)&quot;&gt;Public:&lt;/span&gt;&lt;/div&gt;&lt;div style=&quot;line-height: 19px&quot;&gt;&lt;div&gt;&lt;font color=&quot;#ffffff&quot; style=&quot;font-size: 12px&quot;&gt;int realVoltage;&lt;/font&gt;&lt;/div&gt;&lt;div&gt;    &lt;font color=&quot;#ffffff&quot; style=&quot;font-size: 12px&quot;&gt;int calibrated;&lt;/font&gt;&lt;/div&gt;&lt;div&gt;    &lt;font color=&quot;#ffffff&quot; style=&quot;font-size: 12px&quot;&gt;void get();&lt;/font&gt;&lt;/div&gt;&lt;div&gt;    &lt;font color=&quot;#ffffff&quot; style=&quot;font-size: 12px&quot;&gt;float getValue();&lt;/font&gt;&lt;/div&gt;&lt;div&gt;    &lt;font color=&quot;#ffffff&quot; style=&quot;font-size: 12px&quot;&gt;float getAverage();&lt;/font&gt;&lt;/div&gt;&lt;div&gt;    &lt;font color=&quot;#ffffff&quot; style=&quot;font-size: 12px&quot;&gt;float getVoltage();&lt;/font&gt;&lt;/div&gt;&lt;div&gt;    &lt;font color=&quot;#ffffff&quot; style=&quot;font-size: 12px&quot;&gt;bool getReady();&lt;/font&gt;&lt;/div&gt;&lt;div&gt;&lt;font color=&quot;#ffffff&quot; style=&quot;font-size: 12px&quot;&gt;&lt;br&gt;&lt;/font&gt;&lt;/div&gt;&lt;div&gt;&lt;div style=&quot;line-height: 19px&quot;&gt;&lt;div&gt;&lt;font color=&quot;#ffffff&quot; style=&quot;font-size: 12px&quot;&gt;private:&lt;/font&gt;&lt;/div&gt;&lt;div&gt;    &lt;font color=&quot;#ffffff&quot; style=&quot;font-size: 12px&quot;&gt;int _sensor;&lt;/font&gt;&lt;/div&gt;&lt;div&gt;    &lt;font color=&quot;#ffffff&quot; style=&quot;font-size: 12px&quot;&gt;int _freq;&lt;/font&gt;&lt;/div&gt;&lt;div&gt;    &lt;font color=&quot;#ffffff&quot; style=&quot;font-size: 12px&quot;&gt;float _average;&lt;/font&gt;&lt;/div&gt;&lt;div&gt;    &lt;font color=&quot;#ffffff&quot; style=&quot;font-size: 12px&quot;&gt;float _voltage;&lt;/font&gt;&lt;/div&gt;&lt;div&gt;    &lt;font color=&quot;#ffffff&quot; style=&quot;font-size: 12px&quot;&gt;int _R;&lt;/font&gt;&lt;/div&gt;&lt;div&gt;    &lt;font color=&quot;#ffffff&quot; style=&quot;font-size: 12px&quot;&gt;unsigned long _tMax;&lt;/font&gt;&lt;/div&gt;&lt;div&gt;    &lt;font color=&quot;#ffffff&quot; style=&quot;font-size: 12px&quot;&gt;unsigned long _tActu;&lt;/font&gt;&lt;/div&gt;&lt;div&gt;    &lt;font color=&quot;#ffffff&quot; style=&quot;font-size: 12px&quot;&gt;float _maxVal;&lt;/font&gt;&lt;/div&gt;&lt;div&gt;    &lt;font color=&quot;#ffffff&quot; style=&quot;font-size: 12px&quot;&gt;float _minVal;&lt;/font&gt;&lt;/div&gt;&lt;div&gt;&lt;font color=&quot;#ffffff&quot; style=&quot;font-size: 12px&quot;&gt;    // Movil Average&lt;/font&gt;&lt;/div&gt;&lt;div&gt;    &lt;font color=&quot;#ffffff&quot; style=&quot;font-size: 12px&quot;&gt;float _Y = 0.00;&lt;/font&gt;&lt;/div&gt;&lt;div&gt;    &lt;font color=&quot;#ffffff&quot; style=&quot;font-size: 12px&quot;&gt;float _alpha = 0.86;&lt;/font&gt;&lt;/div&gt;&lt;div&gt;    &lt;font color=&quot;#ffffff&quot; style=&quot;font-size: 12px&quot;&gt;float _S = _Y;&lt;/font&gt;&lt;/div&gt;&lt;/div&gt;&lt;/div&gt;&lt;/div&gt;&lt;span&gt;&lt;br&gt;&lt;/span&gt;" style="rounded=1;whiteSpace=wrap;html=1;absoluteArcSize=1;arcSize=14;strokeWidth=2;align=left;" vertex="1" parent="1">
                    <mxGeometry x="20" y="100" width="130" height="470" as="geometry"/>
                </mxCell>
                <mxCell id="7" value="&lt;div style=&quot;line-height: 19px&quot;&gt;&lt;div&gt;  &lt;font color=&quot;#ffffff&quot;&gt;_sensor = sensorPin;&lt;/font&gt;&lt;/div&gt;&lt;div&gt;  &lt;font color=&quot;#ffffff&quot;&gt;_freq = freq;&lt;/font&gt;&lt;/div&gt;&lt;/div&gt;" style="rounded=1;whiteSpace=wrap;html=1;absoluteArcSize=1;arcSize=14;strokeWidth=2;align=left;" vertex="1" parent="1">
                    <mxGeometry x="20" y="595" width="130" height="50" as="geometry"/>
                </mxCell>
                <mxCell id="8" value="" style="endArrow=classic;html=1;exitX=0.5;exitY=1;exitDx=0;exitDy=0;entryX=0.5;entryY=0;entryDx=0;entryDy=0;" edge="1" parent="1" source="5" target="7">
                    <mxGeometry width="50" height="50" relative="1" as="geometry">
                        <mxPoint x="230" y="560" as="sourcePoint"/>
                        <mxPoint x="280" y="510" as="targetPoint"/>
                    </mxGeometry>
                </mxCell>
                <mxCell id="55" value="" style="edgeStyle=orthogonalEdgeStyle;rounded=0;orthogonalLoop=1;jettySize=auto;html=1;" edge="1" parent="1" source="10" target="53">
                    <mxGeometry relative="1" as="geometry"/>
                </mxCell>
                <mxCell id="10" value="&lt;div style=&quot;line-height: 19px&quot;&gt;&lt;div&gt;  &lt;font color=&quot;#ffffff&quot;&gt;_maxVal = 0.00;&lt;/font&gt;&lt;/div&gt;&lt;div&gt;  &lt;font color=&quot;#ffffff&quot;&gt;_minVal = 1024.00;&lt;/font&gt;&lt;/div&gt;&lt;div&gt;  &lt;font color=&quot;#ffffff&quot;&gt;_tActu = (unsigned long)millis();&lt;/font&gt;&lt;/div&gt;&lt;div&gt;  &lt;font color=&quot;#ffffff&quot;&gt;_tMax = _tActu + _freq;&lt;/font&gt;&lt;/div&gt;&lt;/div&gt;" style="rounded=1;whiteSpace=wrap;html=1;absoluteArcSize=1;arcSize=14;strokeWidth=2;align=left;" vertex="1" parent="1">
                    <mxGeometry x="446" y="96" width="180" height="100" as="geometry"/>
                </mxCell>
                <mxCell id="15" value="" style="endArrow=classic;html=1;exitX=0.5;exitY=1;exitDx=0;exitDy=0;entryX=0.5;entryY=0;entryDx=0;entryDy=0;" edge="1" parent="1" source="51" target="10">
                    <mxGeometry width="50" height="50" relative="1" as="geometry">
                        <mxPoint x="536" y="77" as="sourcePoint"/>
                        <mxPoint x="746" y="250" as="targetPoint"/>
                    </mxGeometry>
                </mxCell>
                <mxCell id="16" value="&lt;div style=&quot;font-size: 14px ; line-height: 19px&quot;&gt;&lt;font color=&quot;#ffffff&quot;&gt;_tActu =&amp;nbsp;&lt;/font&gt;&lt;/div&gt;&lt;div style=&quot;font-size: 14px ; line-height: 19px&quot;&gt;&lt;font color=&quot;#ffffff&quot;&gt;(unsigned long)millis()&lt;/font&gt;&lt;/div&gt;" style="rounded=1;whiteSpace=wrap;html=1;absoluteArcSize=1;arcSize=14;strokeWidth=2;align=left;" vertex="1" parent="1">
                    <mxGeometry x="196" y="320" width="151" height="50" as="geometry"/>
                </mxCell>
                <mxCell id="17" value="&lt;div style=&quot;font-size: 14px ; line-height: 19px&quot;&gt;&lt;font color=&quot;#ffffff&quot;&gt;_Y = (float)analogRead(_sensor)&lt;/font&gt;&lt;/div&gt;" style="shape=parallelogram;html=1;strokeWidth=2;perimeter=parallelogramPerimeter;whiteSpace=wrap;rounded=1;arcSize=12;size=0.23;align=center;" vertex="1" parent="1">
                    <mxGeometry x="381" y="355" width="310" height="50" as="geometry"/>
                </mxCell>
                <mxCell id="20" value="" style="edgeStyle=orthogonalEdgeStyle;rounded=0;orthogonalLoop=1;jettySize=auto;html=1;" edge="1" parent="1" source="17" target="19">
                    <mxGeometry relative="1" as="geometry"/>
                </mxCell>
                <mxCell id="23" value="" style="edgeStyle=orthogonalEdgeStyle;rounded=0;orthogonalLoop=1;jettySize=auto;html=1;exitX=0.75;exitY=1;exitDx=0;exitDy=0;" edge="1" parent="1" source="19" target="21">
                    <mxGeometry relative="1" as="geometry"/>
                </mxCell>
                <mxCell id="19" value="&lt;div style=&quot;line-height: 19px&quot;&gt;_S = (_alpha*_Y)+((1-_alpha)*_S)&lt;/div&gt;" style="rounded=1;whiteSpace=wrap;html=1;absoluteArcSize=1;arcSize=14;strokeWidth=2;" vertex="1" parent="1">
                    <mxGeometry x="426" y="436" width="220" height="50" as="geometry"/>
                </mxCell>
                <mxCell id="25" value="" style="edgeStyle=orthogonalEdgeStyle;rounded=0;orthogonalLoop=1;jettySize=auto;html=1;" edge="1" parent="1" source="21" target="24">
                    <mxGeometry relative="1" as="geometry"/>
                </mxCell>
                <mxCell id="21" value="&lt;div style=&quot;line-height: 19px&quot;&gt;&lt;div style=&quot;line-height: 19px&quot;&gt;_S &amp;lt; _minVal&lt;/div&gt;&lt;/div&gt;" style="strokeWidth=2;html=1;shape=mxgraph.flowchart.decision;whiteSpace=wrap;" vertex="1" parent="1">
                    <mxGeometry x="622" y="538" width="142.5" height="60" as="geometry"/>
                </mxCell>
                <mxCell id="40" value="" style="edgeStyle=orthogonalEdgeStyle;rounded=0;orthogonalLoop=1;jettySize=auto;html=1;" edge="1" parent="1" source="24" target="37">
                    <mxGeometry relative="1" as="geometry"/>
                </mxCell>
                <mxCell id="24" value="&lt;span&gt;_minVal = _S&lt;/span&gt;" style="rounded=1;whiteSpace=wrap;html=1;absoluteArcSize=1;arcSize=14;strokeWidth=2;" vertex="1" parent="1">
                    <mxGeometry x="643.25" y="629" width="100" height="35" as="geometry"/>
                </mxCell>
                <mxCell id="26" value="" style="edgeStyle=orthogonalEdgeStyle;rounded=0;orthogonalLoop=1;jettySize=auto;html=1;" edge="1" parent="1" source="27" target="28">
                    <mxGeometry relative="1" as="geometry"/>
                </mxCell>
                <mxCell id="29" value="" style="edgeStyle=orthogonalEdgeStyle;rounded=0;orthogonalLoop=1;jettySize=auto;html=1;exitX=0.25;exitY=1;exitDx=0;exitDy=0;" edge="1" parent="1" source="19" target="27">
                    <mxGeometry relative="1" as="geometry"/>
                </mxCell>
                <mxCell id="27" value="&lt;div style=&quot;line-height: 19px&quot;&gt;_S &amp;gt; _maxVal&lt;/div&gt;" style="strokeWidth=2;html=1;shape=mxgraph.flowchart.decision;whiteSpace=wrap;" vertex="1" parent="1">
                    <mxGeometry x="303.5" y="538" width="142.5" height="60" as="geometry"/>
                </mxCell>
                <mxCell id="39" value="" style="edgeStyle=orthogonalEdgeStyle;rounded=0;orthogonalLoop=1;jettySize=auto;html=1;" edge="1" parent="1" source="28" target="37">
                    <mxGeometry relative="1" as="geometry"/>
                </mxCell>
                <mxCell id="28" value="&lt;span&gt;_maxVal = _S&lt;/span&gt;" style="rounded=1;whiteSpace=wrap;html=1;absoluteArcSize=1;arcSize=14;strokeWidth=2;" vertex="1" parent="1">
                    <mxGeometry x="324.75" y="629" width="100" height="35" as="geometry"/>
                </mxCell>
                <mxCell id="41" value="" style="edgeStyle=orthogonalEdgeStyle;rounded=0;orthogonalLoop=1;jettySize=auto;html=1;" edge="1" parent="1" source="30" target="37">
                    <mxGeometry relative="1" as="geometry"/>
                </mxCell>
                <mxCell id="30" value="" style="verticalLabelPosition=bottom;verticalAlign=top;html=1;shape=mxgraph.flowchart.or;" vertex="1" parent="1">
                    <mxGeometry x="522.5" y="555.5" width="25" height="25" as="geometry"/>
                </mxCell>
                <mxCell id="31" value="" style="endArrow=classic;html=1;exitX=1;exitY=0.5;exitDx=0;exitDy=0;exitPerimeter=0;entryX=0;entryY=0.5;entryDx=0;entryDy=0;entryPerimeter=0;" edge="1" parent="1" source="27" target="30">
                    <mxGeometry relative="1" as="geometry">
                        <mxPoint x="466" y="553" as="sourcePoint"/>
                        <mxPoint x="566" y="553" as="targetPoint"/>
                    </mxGeometry>
                </mxCell>
                <mxCell id="32" value="NO" style="edgeLabel;resizable=0;html=1;align=center;verticalAlign=middle;" connectable="0" vertex="1" parent="31">
                    <mxGeometry relative="1" as="geometry"/>
                </mxCell>
                <mxCell id="33" value="" style="endArrow=classic;html=1;exitX=0;exitY=0.5;exitDx=0;exitDy=0;exitPerimeter=0;entryX=1;entryY=0.5;entryDx=0;entryDy=0;entryPerimeter=0;" edge="1" parent="1" source="21" target="30">
                    <mxGeometry relative="1" as="geometry">
                        <mxPoint x="408.5" y="573" as="sourcePoint"/>
                        <mxPoint x="596" y="613" as="targetPoint"/>
                    </mxGeometry>
                </mxCell>
                <mxCell id="34" value="NO" style="edgeLabel;resizable=0;html=1;align=center;verticalAlign=middle;" connectable="0" vertex="1" parent="33">
                    <mxGeometry relative="1" as="geometry"/>
                </mxCell>
                <mxCell id="37" value="" style="verticalLabelPosition=bottom;verticalAlign=top;html=1;shape=mxgraph.flowchart.or;" vertex="1" parent="1">
                    <mxGeometry x="522.5" y="634" width="25" height="25" as="geometry"/>
                </mxCell>
                <mxCell id="43" value="" style="endArrow=classic;html=1;exitX=0.5;exitY=1;exitDx=0;exitDy=0;exitPerimeter=0;entryX=0.5;entryY=1;entryDx=0;entryDy=0;" edge="1" parent="1" source="37" target="16">
                    <mxGeometry width="50" height="50" relative="1" as="geometry">
                        <mxPoint x="535" y="706" as="sourcePoint"/>
                        <mxPoint x="285" y="355" as="targetPoint"/>
                        <Array as="points">
                            <mxPoint x="535" y="690"/>
                            <mxPoint x="272" y="690"/>
                        </Array>
                    </mxGeometry>
                </mxCell>
                <mxCell id="45" value="" style="endArrow=classic;html=1;exitX=1;exitY=0.5;exitDx=0;exitDy=0;entryX=1;entryY=0.5;entryDx=0;entryDy=0;" edge="1" parent="1" source="53" target="46">
                    <mxGeometry width="50" height="50" relative="1" as="geometry">
                        <mxPoint x="646" y="275" as="sourcePoint"/>
                        <mxPoint x="776" y="850" as="targetPoint"/>
                        <Array as="points">
                            <mxPoint x="786" y="275"/>
                            <mxPoint x="786" y="745"/>
                        </Array>
                    </mxGeometry>
                </mxCell>
                <mxCell id="46" value="&lt;div style=&quot;line-height: 19px&quot;&gt;_average = (_maxVal - _minVal) / 2 + _minVal;&lt;/div&gt;" style="rounded=1;whiteSpace=wrap;html=1;absoluteArcSize=1;arcSize=14;strokeWidth=2;" vertex="1" parent="1">
                    <mxGeometry x="399.5" y="730" width="271" height="30" as="geometry"/>
                </mxCell>
                <mxCell id="47" value="" style="endArrow=classic;html=1;exitX=0.5;exitY=0;exitDx=0;exitDy=0;entryX=0;entryY=0.5;entryDx=0;entryDy=0;" edge="1" parent="1" source="16" target="53">
                    <mxGeometry width="50" height="50" relative="1" as="geometry">
                        <mxPoint x="276" y="560" as="sourcePoint"/>
                        <mxPoint x="426" y="275" as="targetPoint"/>
                        <Array as="points">
                            <mxPoint x="272" y="275"/>
                        </Array>
                    </mxGeometry>
                </mxCell>
                <mxCell id="49" value="&lt;span&gt;Voltmeter&amp;nbsp;&lt;/span&gt;&lt;span style=&quot;color: rgb(255 , 255 , 255) ; text-align: left&quot;&gt;(const int sensorPin, const int freq&lt;/span&gt;&lt;span style=&quot;color: rgb(255 , 255 , 255) ; text-align: left&quot;&gt;)&lt;/span&gt;" style="shape=process;whiteSpace=wrap;html=1;backgroundOutline=1;" vertex="1" parent="1">
                    <mxGeometry x="40" y="22" width="330" height="30" as="geometry"/>
                </mxCell>
                <mxCell id="51" value="&lt;span&gt;void Voltmeter::get()&lt;/span&gt;" style="shape=process;whiteSpace=wrap;html=1;backgroundOutline=1;" vertex="1" parent="1">
                    <mxGeometry x="465" y="22" width="140" height="20" as="geometry"/>
                </mxCell>
                <mxCell id="57" value="" style="edgeStyle=orthogonalEdgeStyle;rounded=0;orthogonalLoop=1;jettySize=auto;html=1;" edge="1" parent="1" source="52" target="56">
                    <mxGeometry relative="1" as="geometry"/>
                </mxCell>
                <mxCell id="52" value="&lt;div style=&quot;line-height: 19px&quot;&gt;float Voltmeter::getValue()&lt;/div&gt;" style="shape=process;whiteSpace=wrap;html=1;backgroundOutline=1;" vertex="1" parent="1">
                    <mxGeometry x="605" y="821" width="190" height="30" as="geometry"/>
                </mxCell>
                <mxCell id="54" value="" style="edgeStyle=orthogonalEdgeStyle;rounded=0;orthogonalLoop=1;jettySize=auto;html=1;" edge="1" parent="1" source="53" target="17">
                    <mxGeometry relative="1" as="geometry"/>
                </mxCell>
                <mxCell id="53" value="&lt;div style=&quot;font-family: &amp;#34;droid sans mono&amp;#34; , monospace , monospace , &amp;#34;droid sans fallback&amp;#34; ; font-size: 14px ; line-height: 19px&quot;&gt;&lt;font color=&quot;#ffffff&quot;&gt;_tActu = _tActu;&lt;/font&gt;&lt;/div&gt;&lt;div style=&quot;font-family: &amp;#34;droid sans mono&amp;#34; , monospace , monospace , &amp;#34;droid sans fallback&amp;#34; ; font-size: 14px ; line-height: 19px&quot;&gt;&lt;font color=&quot;#ffffff&quot;&gt;_tMax &amp;gt; _tActu&lt;/font&gt;&lt;/div&gt;" style="shape=hexagon;perimeter=hexagonPerimeter2;whiteSpace=wrap;html=1;fixedSize=1;" vertex="1" parent="1">
                    <mxGeometry x="449" y="235" width="174" height="80" as="geometry"/>
                </mxCell>
                <mxCell id="56" value="&lt;div style=&quot;line-height: 19px&quot;&gt;return _maxVal&lt;/div&gt;" style="rounded=1;whiteSpace=wrap;html=1;arcSize=50;" vertex="1" parent="1">
                    <mxGeometry x="645" y="881" width="110" height="30" as="geometry"/>
                </mxCell>
                <mxCell id="58" value="" style="edgeStyle=orthogonalEdgeStyle;rounded=0;orthogonalLoop=1;jettySize=auto;html=1;" edge="1" parent="1" source="59" target="60">
                    <mxGeometry relative="1" as="geometry"/>
                </mxCell>
                <mxCell id="59" value="&lt;div style=&quot;line-height: 19px&quot;&gt;float Voltmeter::getAverage()&lt;/div&gt;" style="shape=process;whiteSpace=wrap;html=1;backgroundOutline=1;" vertex="1" parent="1">
                    <mxGeometry x="595" y="940" width="210" height="30" as="geometry"/>
                </mxCell>
                <mxCell id="60" value="&lt;div style=&quot;line-height: 19px&quot;&gt;return _average&lt;/div&gt;" style="rounded=1;whiteSpace=wrap;html=1;arcSize=50;" vertex="1" parent="1">
                    <mxGeometry x="645" y="1000" width="110" height="30" as="geometry"/>
                </mxCell>
                <mxCell id="63" value="" style="edgeStyle=orthogonalEdgeStyle;rounded=0;orthogonalLoop=1;jettySize=auto;html=1;" edge="1" parent="1" source="61" target="62">
                    <mxGeometry relative="1" as="geometry"/>
                </mxCell>
                <mxCell id="61" value="&lt;div style=&quot;line-height: 19px&quot;&gt;&lt;div style=&quot;line-height: 19px&quot;&gt;bool Voltmeter::getReady()&lt;/div&gt;&lt;/div&gt;" style="shape=process;whiteSpace=wrap;html=1;backgroundOutline=1;" vertex="1" parent="1">
                    <mxGeometry x="257.62" y="821" width="210" height="30" as="geometry"/>
                </mxCell>
                <mxCell id="66" value="" style="edgeStyle=orthogonalEdgeStyle;rounded=0;orthogonalLoop=1;jettySize=auto;html=1;" edge="1" parent="1" source="62" target="64">
                    <mxGeometry relative="1" as="geometry"/>
                </mxCell>
                <mxCell id="62" value="&lt;div style=&quot;line-height: 19px&quot;&gt;_voltage &amp;gt; 190 &amp;amp;&amp;amp; _voltage &amp;lt; 240&lt;/div&gt;" style="rhombus;whiteSpace=wrap;html=1;" vertex="1" parent="1">
                    <mxGeometry x="250" y="871" width="225.25" height="80" as="geometry"/>
                </mxCell>
                <mxCell id="64" value="&lt;div style=&quot;line-height: 19px&quot;&gt;return true&lt;/div&gt;" style="rounded=1;whiteSpace=wrap;html=1;arcSize=50;" vertex="1" parent="1">
                    <mxGeometry x="307.62" y="980" width="110" height="30" as="geometry"/>
                </mxCell>
                <mxCell id="65" value="&lt;div style=&quot;line-height: 19px&quot;&gt;return false&lt;/div&gt;" style="rounded=1;whiteSpace=wrap;html=1;arcSize=50;" vertex="1" parent="1">
                    <mxGeometry x="467.62" y="980" width="110" height="30" as="geometry"/>
                </mxCell>
                <mxCell id="70" value="" style="endArrow=classic;html=1;exitX=1;exitY=0.5;exitDx=0;exitDy=0;entryX=0.5;entryY=0;entryDx=0;entryDy=0;" edge="1" parent="1" source="62" target="65">
                    <mxGeometry relative="1" as="geometry">
                        <mxPoint x="297.87" y="1001" as="sourcePoint"/>
                        <mxPoint x="397.87" y="1001" as="targetPoint"/>
                        <Array as="points">
                            <mxPoint x="522.87" y="911"/>
                        </Array>
                    </mxGeometry>
                </mxCell>
                <mxCell id="71" value="NO" style="edgeLabel;resizable=0;html=1;align=center;verticalAlign=middle;" connectable="0" vertex="1" parent="70">
                    <mxGeometry relative="1" as="geometry"/>
                </mxCell>
                <mxCell id="76" value="" style="edgeStyle=orthogonalEdgeStyle;rounded=0;orthogonalLoop=1;jettySize=auto;html=1;" edge="1" parent="1" source="72" target="74">
                    <mxGeometry relative="1" as="geometry"/>
                </mxCell>
                <mxCell id="72" value="&lt;div style=&quot;line-height: 19px&quot;&gt;&lt;div style=&quot;line-height: 19px&quot;&gt;&lt;div style=&quot;line-height: 19px&quot;&gt;float Voltmeter::getVoltage()&lt;/div&gt;&lt;/div&gt;&lt;/div&gt;" style="shape=process;whiteSpace=wrap;html=1;backgroundOutline=1;" vertex="1" parent="1">
                    <mxGeometry x="20" y="760" width="210" height="30" as="geometry"/>
                </mxCell>
                <mxCell id="78" value="" style="edgeStyle=orthogonalEdgeStyle;rounded=0;orthogonalLoop=1;jettySize=auto;html=1;" edge="1" parent="1" source="73" target="77">
                    <mxGeometry relative="1" as="geometry"/>
                </mxCell>
                <mxCell id="73" value="&lt;div style=&quot;line-height: 19px&quot;&gt;&lt;div style=&quot;line-height: 19px&quot;&gt;_voltage = (float)_R/10&lt;/div&gt;&lt;/div&gt;" style="rounded=0;whiteSpace=wrap;html=1;" vertex="1" parent="1">
                    <mxGeometry x="30" y="886" width="190" height="30" as="geometry"/>
                </mxCell>
                <mxCell id="75" value="" style="edgeStyle=orthogonalEdgeStyle;rounded=0;orthogonalLoop=1;jettySize=auto;html=1;" edge="1" parent="1" source="74" target="73">
                    <mxGeometry relative="1" as="geometry"/>
                </mxCell>
                <mxCell id="74" value="&lt;div style=&quot;line-height: 19px&quot;&gt;_R = (_maxVal - _average)*10&lt;/div&gt;" style="rounded=0;whiteSpace=wrap;html=1;" vertex="1" parent="1">
                    <mxGeometry x="30" y="821" width="190" height="30" as="geometry"/>
                </mxCell>
                <mxCell id="77" value="&lt;div style=&quot;line-height: 19px&quot;&gt;return _voltage&lt;/div&gt;" style="rounded=1;whiteSpace=wrap;html=1;arcSize=50;" vertex="1" parent="1">
                    <mxGeometry x="70" y="950" width="110" height="30" as="geometry"/>
                </mxCell>
            </root>
        </mxGraphModel>
    </diagram>
</mxfile>